<mxfile host="app.diagrams.net" agent="Mozilla/5.0 (Macintosh; Intel Mac OS X 10_15_7) AppleWebKit/537.36 (KHTML, like Gecko) Chrome/135.0.0.0 Safari/537.36" version="26.2.12">
  <diagram name="Page-1" id="Yk5gqsM_una3mSJjagre">
    <mxGraphModel dx="2480" dy="1107" grid="1" gridSize="10" guides="1" tooltips="1" connect="1" arrows="1" fold="1" page="1" pageScale="1" pageWidth="850" pageHeight="1100" math="0" shadow="0">
      <root>
        <mxCell id="0" />
        <mxCell id="1" parent="0" />
        <mxCell id="NY-ZdKfG21k544bjwJPL-45" value="" style="rounded=0;whiteSpace=wrap;html=1;fillColor=#C3ABD0;" parent="1" vertex="1">
          <mxGeometry x="-238" y="742" width="60" height="30" as="geometry" />
        </mxCell>
        <mxCell id="NY-ZdKfG21k544bjwJPL-43" value="" style="rounded=0;whiteSpace=wrap;html=1;fillColor=#A9C4EB;" parent="1" vertex="1">
          <mxGeometry x="-384" y="742" width="60" height="30" as="geometry" />
        </mxCell>
        <mxCell id="NY-ZdKfG21k544bjwJPL-42" value="" style="rounded=0;whiteSpace=wrap;html=1;fillColor=#FFE599;" parent="1" vertex="1">
          <mxGeometry x="-321" y="742" width="79" height="30" as="geometry" />
        </mxCell>
        <mxCell id="toREJBgp3T2Z5otdVvuI-4" value="" style="rounded=0;whiteSpace=wrap;html=1;fillColor=#E6E6E6;" parent="1" vertex="1">
          <mxGeometry x="1280" y="200" width="240" height="200" as="geometry" />
        </mxCell>
        <mxCell id="Hwh45yyVBSEUl5WAiRsI-37" value="" style="rounded=0;whiteSpace=wrap;html=1;fillColor=#E6E6E6;" parent="1" vertex="1">
          <mxGeometry x="140" y="420" width="240" height="210" as="geometry" />
        </mxCell>
        <mxCell id="Hwh45yyVBSEUl5WAiRsI-35" value="" style="rounded=0;whiteSpace=wrap;html=1;fillColor=#E6E6E6;" parent="1" vertex="1">
          <mxGeometry x="140" y="110" width="120" height="300" as="geometry" />
        </mxCell>
        <mxCell id="Hwh45yyVBSEUl5WAiRsI-8" style="edgeStyle=orthogonalEdgeStyle;rounded=0;orthogonalLoop=1;jettySize=auto;html=1;entryX=0.5;entryY=0;entryDx=0;entryDy=0;" parent="1" source="Hwh45yyVBSEUl5WAiRsI-1" target="Hwh45yyVBSEUl5WAiRsI-7" edge="1">
          <mxGeometry relative="1" as="geometry" />
        </mxCell>
        <mxCell id="Hwh45yyVBSEUl5WAiRsI-1" value="&lt;font face=&quot;Avenir&quot;&gt;BNF&lt;/font&gt;" style="rounded=0;whiteSpace=wrap;html=1;fillColor=#C3ABD0;" parent="1" vertex="1">
          <mxGeometry x="160" y="120" width="80" height="40" as="geometry" />
        </mxCell>
        <mxCell id="Hwh45yyVBSEUl5WAiRsI-4" style="edgeStyle=orthogonalEdgeStyle;rounded=0;orthogonalLoop=1;jettySize=auto;html=1;entryX=0.5;entryY=0;entryDx=0;entryDy=0;" parent="1" source="Hwh45yyVBSEUl5WAiRsI-3" target="Hwh45yyVBSEUl5WAiRsI-1" edge="1">
          <mxGeometry relative="1" as="geometry" />
        </mxCell>
        <mxCell id="Hwh45yyVBSEUl5WAiRsI-3" value="&lt;font face=&quot;Avenir&quot;&gt;DESIGNER&lt;/font&gt;" style="text;html=1;align=center;verticalAlign=middle;resizable=0;points=[];autosize=1;strokeColor=none;fillColor=none;" parent="1" vertex="1">
          <mxGeometry x="160" y="60" width="80" height="30" as="geometry" />
        </mxCell>
        <mxCell id="Hwh45yyVBSEUl5WAiRsI-6" style="edgeStyle=orthogonalEdgeStyle;rounded=0;orthogonalLoop=1;jettySize=auto;html=1;entryX=1;entryY=0.5;entryDx=0;entryDy=0;exitX=0.5;exitY=1;exitDx=0;exitDy=0;" parent="1" source="Hwh45yyVBSEUl5WAiRsI-5" target="Hwh45yyVBSEUl5WAiRsI-7" edge="1">
          <mxGeometry relative="1" as="geometry">
            <mxPoint x="320" y="200" as="targetPoint" />
          </mxGeometry>
        </mxCell>
        <mxCell id="Hwh45yyVBSEUl5WAiRsI-5" value="&lt;font face=&quot;Avenir&quot;&gt;ANTLR&lt;/font&gt;" style="rounded=0;whiteSpace=wrap;html=1;fillColor=#A7D1A7;" parent="1" vertex="1">
          <mxGeometry x="280" y="120" width="80" height="40" as="geometry" />
        </mxCell>
        <mxCell id="Hwh45yyVBSEUl5WAiRsI-10" style="edgeStyle=orthogonalEdgeStyle;rounded=0;orthogonalLoop=1;jettySize=auto;html=1;" parent="1" source="Hwh45yyVBSEUl5WAiRsI-7" target="Hwh45yyVBSEUl5WAiRsI-9" edge="1">
          <mxGeometry relative="1" as="geometry" />
        </mxCell>
        <mxCell id="Hwh45yyVBSEUl5WAiRsI-7" value="&lt;font face=&quot;Avenir&quot;&gt;BNF-Parser&lt;/font&gt;" style="rounded=0;whiteSpace=wrap;html=1;fillColor=#91A8C9;" parent="1" vertex="1">
          <mxGeometry x="160" y="200" width="80" height="40" as="geometry" />
        </mxCell>
        <mxCell id="Hwh45yyVBSEUl5WAiRsI-11" style="edgeStyle=orthogonalEdgeStyle;rounded=0;orthogonalLoop=1;jettySize=auto;html=1;" parent="1" source="Hwh45yyVBSEUl5WAiRsI-9" target="Hwh45yyVBSEUl5WAiRsI-12" edge="1">
          <mxGeometry relative="1" as="geometry">
            <mxPoint x="200" y="360" as="targetPoint" />
          </mxGeometry>
        </mxCell>
        <mxCell id="Hwh45yyVBSEUl5WAiRsI-9" value="&lt;font face=&quot;Avenir&quot;&gt;Grammar&lt;/font&gt;" style="rounded=0;whiteSpace=wrap;html=1;fillColor=#91A8C9;" parent="1" vertex="1">
          <mxGeometry x="160" y="280" width="80" height="40" as="geometry" />
        </mxCell>
        <mxCell id="Hwh45yyVBSEUl5WAiRsI-12" value="&lt;font face=&quot;Avenir&quot;&gt;Grammar-Parser&lt;/font&gt;" style="rounded=0;whiteSpace=wrap;html=1;fillColor=#91A8C9;" parent="1" vertex="1">
          <mxGeometry x="160" y="360" width="80" height="40" as="geometry" />
        </mxCell>
        <mxCell id="Hwh45yyVBSEUl5WAiRsI-15" style="edgeStyle=orthogonalEdgeStyle;rounded=0;orthogonalLoop=1;jettySize=auto;html=1;entryX=1;entryY=0.5;entryDx=0;entryDy=0;exitX=0.5;exitY=1;exitDx=0;exitDy=0;" parent="1" source="Hwh45yyVBSEUl5WAiRsI-14" target="Hwh45yyVBSEUl5WAiRsI-12" edge="1">
          <mxGeometry relative="1" as="geometry" />
        </mxCell>
        <mxCell id="Hwh45yyVBSEUl5WAiRsI-14" value="&lt;font face=&quot;Avenir&quot;&gt;Tree-Sitter&lt;/font&gt;" style="rounded=0;whiteSpace=wrap;html=1;fillColor=#A7D1A7;" parent="1" vertex="1">
          <mxGeometry x="280" y="280" width="80" height="40" as="geometry" />
        </mxCell>
        <mxCell id="Hwh45yyVBSEUl5WAiRsI-18" value="&lt;font face=&quot;Avenir&quot;&gt;Computable Contract IDE&lt;/font&gt;" style="rounded=0;whiteSpace=wrap;html=1;fillColor=#91A8C9;" parent="1" vertex="1">
          <mxGeometry x="160" y="440" width="200" height="40" as="geometry" />
        </mxCell>
        <mxCell id="Hwh45yyVBSEUl5WAiRsI-23" style="edgeStyle=orthogonalEdgeStyle;rounded=0;orthogonalLoop=1;jettySize=auto;html=1;exitX=0.25;exitY=1;exitDx=0;exitDy=0;entryX=0.102;entryY=-0.06;entryDx=0;entryDy=0;entryPerimeter=0;" parent="1" source="Hwh45yyVBSEUl5WAiRsI-12" target="Hwh45yyVBSEUl5WAiRsI-18" edge="1">
          <mxGeometry relative="1" as="geometry" />
        </mxCell>
        <mxCell id="Hwh45yyVBSEUl5WAiRsI-26" style="edgeStyle=orthogonalEdgeStyle;rounded=0;orthogonalLoop=1;jettySize=auto;html=1;exitX=0.25;exitY=0;exitDx=0;exitDy=0;entryX=0.628;entryY=0.982;entryDx=0;entryDy=0;entryPerimeter=0;" parent="1" source="Hwh45yyVBSEUl5WAiRsI-18" target="Hwh45yyVBSEUl5WAiRsI-12" edge="1">
          <mxGeometry relative="1" as="geometry" />
        </mxCell>
        <mxCell id="Hwh45yyVBSEUl5WAiRsI-28" value="&lt;font face=&quot;Avenir&quot;&gt;Contract&lt;/font&gt;" style="rounded=0;whiteSpace=wrap;html=1;fillColor=#C3ABD0;" parent="1" vertex="1">
          <mxGeometry x="160" y="520" width="80" height="40" as="geometry" />
        </mxCell>
        <mxCell id="Hwh45yyVBSEUl5WAiRsI-31" style="edgeStyle=orthogonalEdgeStyle;rounded=0;orthogonalLoop=1;jettySize=auto;html=1;entryX=0.202;entryY=1.041;entryDx=0;entryDy=0;entryPerimeter=0;" parent="1" source="Hwh45yyVBSEUl5WAiRsI-28" target="Hwh45yyVBSEUl5WAiRsI-18" edge="1">
          <mxGeometry relative="1" as="geometry" />
        </mxCell>
        <mxCell id="Hwh45yyVBSEUl5WAiRsI-33" style="edgeStyle=orthogonalEdgeStyle;rounded=0;orthogonalLoop=1;jettySize=auto;html=1;entryX=0.5;entryY=1;entryDx=0;entryDy=0;" parent="1" source="Hwh45yyVBSEUl5WAiRsI-32" target="Hwh45yyVBSEUl5WAiRsI-28" edge="1">
          <mxGeometry relative="1" as="geometry" />
        </mxCell>
        <mxCell id="Hwh45yyVBSEUl5WAiRsI-32" value="&lt;font face=&quot;Avenir&quot;&gt;LAWYER&lt;/font&gt;" style="text;html=1;align=center;verticalAlign=middle;resizable=0;points=[];autosize=1;strokeColor=none;fillColor=none;" parent="1" vertex="1">
          <mxGeometry x="165" y="590" width="70" height="30" as="geometry" />
        </mxCell>
        <mxCell id="Hwh45yyVBSEUl5WAiRsI-38" value="&lt;font face=&quot;Avenir&quot;&gt;Designer&amp;nbsp;&lt;/font&gt;&lt;div&gt;&lt;font face=&quot;Avenir&quot;&gt;Facing&lt;/font&gt;&lt;/div&gt;" style="text;html=1;align=center;verticalAlign=middle;resizable=0;points=[];autosize=1;strokeColor=none;fillColor=none;" parent="1" vertex="1">
          <mxGeometry x="60" y="230" width="80" height="40" as="geometry" />
        </mxCell>
        <mxCell id="Hwh45yyVBSEUl5WAiRsI-39" value="&lt;font face=&quot;Avenir&quot;&gt;Lawyer Facing&lt;/font&gt;" style="text;html=1;align=center;verticalAlign=middle;resizable=0;points=[];autosize=1;strokeColor=none;fillColor=none;" parent="1" vertex="1">
          <mxGeometry x="255" y="530" width="100" height="30" as="geometry" />
        </mxCell>
        <mxCell id="Hwh45yyVBSEUl5WAiRsI-41" value="&lt;font face=&quot;Avenir&quot;&gt;User/Dev Interactions&lt;/font&gt;" style="rounded=0;whiteSpace=wrap;html=1;fillColor=#C3ABD0;" parent="1" vertex="1">
          <mxGeometry x="400" y="120" width="80" height="40" as="geometry" />
        </mxCell>
        <mxCell id="Hwh45yyVBSEUl5WAiRsI-42" value="&lt;font face=&quot;Avenir&quot;&gt;Tools&lt;/font&gt;" style="rounded=0;whiteSpace=wrap;html=1;fillColor=#A7D1A7;" parent="1" vertex="1">
          <mxGeometry x="400" y="160" width="80" height="40" as="geometry" />
        </mxCell>
        <mxCell id="Hwh45yyVBSEUl5WAiRsI-43" value="&lt;font face=&quot;Avenir&quot;&gt;Parser Pipeline&lt;/font&gt;" style="rounded=0;whiteSpace=wrap;html=1;fillColor=#91A8C9;" parent="1" vertex="1">
          <mxGeometry x="400" y="200" width="80" height="40" as="geometry" />
        </mxCell>
        <mxCell id="toREJBgp3T2Z5otdVvuI-7" style="edgeStyle=orthogonalEdgeStyle;rounded=0;orthogonalLoop=1;jettySize=auto;html=1;entryX=0.5;entryY=1;entryDx=0;entryDy=0;" parent="1" source="toREJBgp3T2Z5otdVvuI-1" target="toREJBgp3T2Z5otdVvuI-4" edge="1">
          <mxGeometry relative="1" as="geometry" />
        </mxCell>
        <mxCell id="toREJBgp3T2Z5otdVvuI-1" value="&lt;font face=&quot;Avenir&quot;&gt;Legal Language&lt;/font&gt;" style="rounded=0;whiteSpace=wrap;html=1;fillColor=#C3ABD0;" parent="1" vertex="1">
          <mxGeometry x="1339" y="440" width="122" height="40" as="geometry" />
        </mxCell>
        <mxCell id="toREJBgp3T2Z5otdVvuI-5" style="edgeStyle=orthogonalEdgeStyle;rounded=0;orthogonalLoop=1;jettySize=auto;html=1;entryX=0;entryY=0.5;entryDx=0;entryDy=0;" parent="1" source="toREJBgp3T2Z5otdVvuI-2" target="toREJBgp3T2Z5otdVvuI-4" edge="1">
          <mxGeometry relative="1" as="geometry" />
        </mxCell>
        <mxCell id="toREJBgp3T2Z5otdVvuI-2" value="&lt;font face=&quot;Avenir&quot;&gt;Analysis Tools&lt;/font&gt;" style="rounded=0;whiteSpace=wrap;html=1;fillColor=#A7D1A7;" parent="1" vertex="1">
          <mxGeometry x="1120" y="280" width="120" height="40" as="geometry" />
        </mxCell>
        <mxCell id="toREJBgp3T2Z5otdVvuI-6" style="edgeStyle=orthogonalEdgeStyle;rounded=0;orthogonalLoop=1;jettySize=auto;html=1;entryX=1;entryY=0.5;entryDx=0;entryDy=0;" parent="1" source="toREJBgp3T2Z5otdVvuI-3" target="toREJBgp3T2Z5otdVvuI-4" edge="1">
          <mxGeometry relative="1" as="geometry" />
        </mxCell>
        <mxCell id="toREJBgp3T2Z5otdVvuI-3" value="&lt;font face=&quot;Avenir&quot;&gt;Visualisation Tools&lt;/font&gt;" style="rounded=0;whiteSpace=wrap;html=1;fillColor=#91A8C9;" parent="1" vertex="1">
          <mxGeometry x="1560" y="280" width="120" height="40" as="geometry" />
        </mxCell>
        <mxCell id="toREJBgp3T2Z5otdVvuI-8" value="&lt;font face=&quot;Avenir&quot;&gt;Computable Contracts IDE&lt;/font&gt;" style="text;html=1;align=center;verticalAlign=middle;whiteSpace=wrap;rounded=0;fontStyle=1;fillColor=#F2F2F2;" parent="1" vertex="1">
          <mxGeometry x="1301.63" y="220" width="192.75" height="50" as="geometry" />
        </mxCell>
        <mxCell id="toREJBgp3T2Z5otdVvuI-9" value="&lt;font face=&quot;Avenir&quot;&gt;Contract Editor&lt;/font&gt;" style="rounded=0;whiteSpace=wrap;html=1;fontStyle=0" parent="1" vertex="1">
          <mxGeometry x="1310" y="280" width="80" height="100" as="geometry" />
        </mxCell>
        <mxCell id="toREJBgp3T2Z5otdVvuI-10" value="&lt;font face=&quot;Avenir&quot;&gt;Contract Parser&lt;/font&gt;" style="rounded=0;whiteSpace=wrap;html=1;fontStyle=0" parent="1" vertex="1">
          <mxGeometry x="1410" y="280" width="80" height="100" as="geometry" />
        </mxCell>
        <mxCell id="ZlwTb9oOvierl9NkocId-6" style="edgeStyle=orthogonalEdgeStyle;rounded=0;orthogonalLoop=1;jettySize=auto;html=1;entryX=1;entryY=0.5;entryDx=0;entryDy=0;" parent="1" source="ZlwTb9oOvierl9NkocId-1" target="toREJBgp3T2Z5otdVvuI-3" edge="1">
          <mxGeometry relative="1" as="geometry" />
        </mxCell>
        <mxCell id="ZlwTb9oOvierl9NkocId-1" value="&lt;font face=&quot;Avenir&quot;&gt;Tree&lt;/font&gt;" style="rounded=0;whiteSpace=wrap;html=1;fillColor=#91A8C9;" parent="1" vertex="1">
          <mxGeometry x="1720" y="200" width="80" height="40" as="geometry" />
        </mxCell>
        <mxCell id="ZlwTb9oOvierl9NkocId-5" style="edgeStyle=orthogonalEdgeStyle;rounded=0;orthogonalLoop=1;jettySize=auto;html=1;exitX=0;exitY=0.5;exitDx=0;exitDy=0;" parent="1" source="ZlwTb9oOvierl9NkocId-2" edge="1">
          <mxGeometry relative="1" as="geometry">
            <mxPoint x="1680" y="300.16666666666674" as="targetPoint" />
          </mxGeometry>
        </mxCell>
        <mxCell id="ZlwTb9oOvierl9NkocId-2" value="&lt;font face=&quot;Avenir&quot;&gt;File&lt;/font&gt;" style="rounded=0;whiteSpace=wrap;html=1;fillColor=#91A8C9;" parent="1" vertex="1">
          <mxGeometry x="1720" y="280" width="80" height="40" as="geometry" />
        </mxCell>
        <mxCell id="ZlwTb9oOvierl9NkocId-4" style="edgeStyle=orthogonalEdgeStyle;rounded=0;orthogonalLoop=1;jettySize=auto;html=1;exitX=0;exitY=0.5;exitDx=0;exitDy=0;entryX=1;entryY=0.5;entryDx=0;entryDy=0;" parent="1" source="ZlwTb9oOvierl9NkocId-3" target="toREJBgp3T2Z5otdVvuI-3" edge="1">
          <mxGeometry relative="1" as="geometry" />
        </mxCell>
        <mxCell id="ZlwTb9oOvierl9NkocId-3" value="&lt;font face=&quot;Avenir&quot;&gt;PDF&lt;/font&gt;" style="rounded=0;whiteSpace=wrap;html=1;fillColor=#91A8C9;" parent="1" vertex="1">
          <mxGeometry x="1720" y="360" width="80" height="40" as="geometry" />
        </mxCell>
        <mxCell id="ZlwTb9oOvierl9NkocId-8" style="edgeStyle=orthogonalEdgeStyle;rounded=0;orthogonalLoop=1;jettySize=auto;html=1;entryX=0;entryY=0.5;entryDx=0;entryDy=0;" parent="1" source="ZlwTb9oOvierl9NkocId-7" target="toREJBgp3T2Z5otdVvuI-2" edge="1">
          <mxGeometry relative="1" as="geometry" />
        </mxCell>
        <mxCell id="ZlwTb9oOvierl9NkocId-7" value="&lt;font face=&quot;Avenir&quot;&gt;Dynamic&lt;/font&gt;" style="rounded=0;whiteSpace=wrap;html=1;fillColor=#A7D1A7;" parent="1" vertex="1">
          <mxGeometry x="1000" y="240" width="80" height="40" as="geometry" />
        </mxCell>
        <mxCell id="ZlwTb9oOvierl9NkocId-11" style="edgeStyle=orthogonalEdgeStyle;rounded=0;orthogonalLoop=1;jettySize=auto;html=1;entryX=0;entryY=0.5;entryDx=0;entryDy=0;" parent="1" source="ZlwTb9oOvierl9NkocId-9" target="toREJBgp3T2Z5otdVvuI-2" edge="1">
          <mxGeometry relative="1" as="geometry" />
        </mxCell>
        <mxCell id="ZlwTb9oOvierl9NkocId-9" value="&lt;font face=&quot;Avenir&quot;&gt;Static&lt;/font&gt;" style="rounded=0;whiteSpace=wrap;html=1;fillColor=#A7D1A7;" parent="1" vertex="1">
          <mxGeometry x="1000" y="320" width="80" height="40" as="geometry" />
        </mxCell>
        <mxCell id="ZlwTb9oOvierl9NkocId-15" style="edgeStyle=orthogonalEdgeStyle;rounded=0;orthogonalLoop=1;jettySize=auto;html=1;entryX=0.5;entryY=0;entryDx=0;entryDy=0;exitX=0.5;exitY=1;exitDx=0;exitDy=0;" parent="1" source="ZlwTb9oOvierl9NkocId-12" target="ZlwTb9oOvierl9NkocId-7" edge="1">
          <mxGeometry relative="1" as="geometry" />
        </mxCell>
        <mxCell id="ZlwTb9oOvierl9NkocId-12" value="&lt;font face=&quot;Avenir&quot;&gt;Consistency&lt;/font&gt;" style="rounded=0;whiteSpace=wrap;html=1;fillColor=#A7D1A7;" parent="1" vertex="1">
          <mxGeometry x="880" y="160" width="80" height="40" as="geometry" />
        </mxCell>
        <mxCell id="ZlwTb9oOvierl9NkocId-16" style="edgeStyle=orthogonalEdgeStyle;rounded=0;orthogonalLoop=1;jettySize=auto;html=1;" parent="1" source="ZlwTb9oOvierl9NkocId-13" edge="1">
          <mxGeometry relative="1" as="geometry">
            <mxPoint x="1040" y="240" as="targetPoint" />
          </mxGeometry>
        </mxCell>
        <mxCell id="ZlwTb9oOvierl9NkocId-13" value="&lt;font face=&quot;Avenir&quot;&gt;Vagueness&lt;/font&gt;" style="rounded=0;whiteSpace=wrap;html=1;fillColor=#A7D1A7;" parent="1" vertex="1">
          <mxGeometry x="1000" y="160" width="80" height="40" as="geometry" />
        </mxCell>
        <mxCell id="ZlwTb9oOvierl9NkocId-17" style="edgeStyle=orthogonalEdgeStyle;rounded=0;orthogonalLoop=1;jettySize=auto;html=1;entryX=0.5;entryY=0;entryDx=0;entryDy=0;exitX=0.5;exitY=1;exitDx=0;exitDy=0;" parent="1" source="ZlwTb9oOvierl9NkocId-14" target="ZlwTb9oOvierl9NkocId-7" edge="1">
          <mxGeometry relative="1" as="geometry" />
        </mxCell>
        <mxCell id="ZlwTb9oOvierl9NkocId-14" value="&lt;font face=&quot;Avenir&quot;&gt;Completeness&lt;/font&gt;" style="rounded=0;whiteSpace=wrap;html=1;fillColor=#A7D1A7;" parent="1" vertex="1">
          <mxGeometry x="1120" y="160" width="80" height="40" as="geometry" />
        </mxCell>
        <mxCell id="ZlwTb9oOvierl9NkocId-19" style="edgeStyle=orthogonalEdgeStyle;rounded=0;orthogonalLoop=1;jettySize=auto;html=1;entryX=0.5;entryY=1;entryDx=0;entryDy=0;" parent="1" source="ZlwTb9oOvierl9NkocId-18" target="ZlwTb9oOvierl9NkocId-9" edge="1">
          <mxGeometry relative="1" as="geometry" />
        </mxCell>
        <mxCell id="ZlwTb9oOvierl9NkocId-18" value="&lt;font face=&quot;Avenir&quot;&gt;Event Simulation&lt;/font&gt;" style="rounded=0;whiteSpace=wrap;html=1;fillColor=#A7D1A7;" parent="1" vertex="1">
          <mxGeometry x="1000" y="400" width="80" height="40" as="geometry" />
        </mxCell>
        <mxCell id="ZlwTb9oOvierl9NkocId-30" style="edgeStyle=orthogonalEdgeStyle;rounded=0;orthogonalLoop=1;jettySize=auto;html=1;exitX=0.5;exitY=0;exitDx=0;exitDy=0;entryX=0.5;entryY=1;entryDx=0;entryDy=0;" parent="1" source="ZlwTb9oOvierl9NkocId-20" target="toREJBgp3T2Z5otdVvuI-1" edge="1">
          <mxGeometry relative="1" as="geometry" />
        </mxCell>
        <mxCell id="ZlwTb9oOvierl9NkocId-20" value="&lt;font face=&quot;Avenir&quot;&gt;Lexon&lt;/font&gt;" style="rounded=0;whiteSpace=wrap;html=1;fillColor=#C3ABD0;" parent="1" vertex="1">
          <mxGeometry x="1240" y="520" width="82" height="40" as="geometry" />
        </mxCell>
        <mxCell id="ZlwTb9oOvierl9NkocId-28" style="edgeStyle=orthogonalEdgeStyle;rounded=0;orthogonalLoop=1;jettySize=auto;html=1;" parent="1" source="ZlwTb9oOvierl9NkocId-21" edge="1">
          <mxGeometry relative="1" as="geometry">
            <mxPoint x="1399.9999999999995" y="480" as="targetPoint" />
          </mxGeometry>
        </mxCell>
        <mxCell id="ZlwTb9oOvierl9NkocId-21" value="&lt;font face=&quot;Avenir&quot;&gt;CoLa&lt;/font&gt;" style="rounded=0;whiteSpace=wrap;html=1;fillColor=#C3ABD0;" parent="1" vertex="1">
          <mxGeometry x="1359" y="520" width="82" height="40" as="geometry" />
        </mxCell>
        <mxCell id="ZlwTb9oOvierl9NkocId-27" style="edgeStyle=orthogonalEdgeStyle;rounded=0;orthogonalLoop=1;jettySize=auto;html=1;entryX=0.5;entryY=1;entryDx=0;entryDy=0;exitX=0.5;exitY=0;exitDx=0;exitDy=0;" parent="1" source="ZlwTb9oOvierl9NkocId-22" target="toREJBgp3T2Z5otdVvuI-1" edge="1">
          <mxGeometry relative="1" as="geometry" />
        </mxCell>
        <mxCell id="ZlwTb9oOvierl9NkocId-22" value="&lt;font face=&quot;Avenir&quot;&gt;L4&lt;/font&gt;" style="rounded=0;whiteSpace=wrap;html=1;fillColor=#C3ABD0;" parent="1" vertex="1">
          <mxGeometry x="1478" y="520" width="82" height="40" as="geometry" />
        </mxCell>
        <mxCell id="ZlwTb9oOvierl9NkocId-32" style="edgeStyle=orthogonalEdgeStyle;rounded=0;orthogonalLoop=1;jettySize=auto;html=1;entryX=0.5;entryY=0;entryDx=0;entryDy=0;" parent="1" source="ZlwTb9oOvierl9NkocId-31" target="toREJBgp3T2Z5otdVvuI-4" edge="1">
          <mxGeometry relative="1" as="geometry" />
        </mxCell>
        <mxCell id="ZlwTb9oOvierl9NkocId-31" value="&lt;font face=&quot;Avenir&quot;&gt;Developmental Tools&lt;/font&gt;" style="rounded=0;whiteSpace=wrap;html=1;fillColor=#E8A665;" parent="1" vertex="1">
          <mxGeometry x="1340" y="120" width="120" height="40" as="geometry" />
        </mxCell>
        <mxCell id="ZlwTb9oOvierl9NkocId-38" style="edgeStyle=orthogonalEdgeStyle;rounded=0;orthogonalLoop=1;jettySize=auto;html=1;entryX=0.5;entryY=0;entryDx=0;entryDy=0;exitX=0.5;exitY=1;exitDx=0;exitDy=0;" parent="1" source="ZlwTb9oOvierl9NkocId-33" target="ZlwTb9oOvierl9NkocId-31" edge="1">
          <mxGeometry relative="1" as="geometry" />
        </mxCell>
        <mxCell id="ZlwTb9oOvierl9NkocId-33" value="&lt;font face=&quot;Avenir&quot;&gt;Syntax Highlighting&lt;/font&gt;" style="rounded=0;whiteSpace=wrap;html=1;fillColor=#E8A665;" parent="1" vertex="1">
          <mxGeometry x="1240" y="40" width="78" height="40" as="geometry" />
        </mxCell>
        <mxCell id="ZlwTb9oOvierl9NkocId-37" style="edgeStyle=orthogonalEdgeStyle;rounded=0;orthogonalLoop=1;jettySize=auto;html=1;entryX=0.5;entryY=0;entryDx=0;entryDy=0;" parent="1" source="ZlwTb9oOvierl9NkocId-34" target="ZlwTb9oOvierl9NkocId-31" edge="1">
          <mxGeometry relative="1" as="geometry" />
        </mxCell>
        <mxCell id="ZlwTb9oOvierl9NkocId-34" value="&lt;font face=&quot;Avenir&quot;&gt;Auto-Suggestion&lt;/font&gt;" style="rounded=0;whiteSpace=wrap;html=1;fillColor=#E8A665;" parent="1" vertex="1">
          <mxGeometry x="1359.5" y="40" width="80.5" height="40" as="geometry" />
        </mxCell>
        <mxCell id="ZlwTb9oOvierl9NkocId-39" style="edgeStyle=orthogonalEdgeStyle;rounded=0;orthogonalLoop=1;jettySize=auto;html=1;entryX=0.5;entryY=0;entryDx=0;entryDy=0;exitX=0.5;exitY=1;exitDx=0;exitDy=0;" parent="1" source="ZlwTb9oOvierl9NkocId-35" target="ZlwTb9oOvierl9NkocId-31" edge="1">
          <mxGeometry relative="1" as="geometry" />
        </mxCell>
        <mxCell id="ZlwTb9oOvierl9NkocId-35" value="&lt;font face=&quot;Avenir&quot;&gt;Formatting&lt;/font&gt;" style="rounded=0;whiteSpace=wrap;html=1;fillColor=#E8A665;" parent="1" vertex="1">
          <mxGeometry x="1480" y="40" width="80" height="40" as="geometry" />
        </mxCell>
        <mxCell id="mIFlO-JkNO0YrqFu7DN3-11" style="edgeStyle=orthogonalEdgeStyle;rounded=0;orthogonalLoop=1;jettySize=auto;html=1;exitX=0.5;exitY=1;exitDx=0;exitDy=0;fontSize=12;startSize=8;endSize=8;entryX=0.5;entryY=0;entryDx=0;entryDy=0;" parent="1" source="mIFlO-JkNO0YrqFu7DN3-1" target="mIFlO-JkNO0YrqFu7DN3-8" edge="1">
          <mxGeometry relative="1" as="geometry">
            <mxPoint x="-559.7272727272727" y="240" as="targetPoint" />
          </mxGeometry>
        </mxCell>
        <mxCell id="mIFlO-JkNO0YrqFu7DN3-13" style="edgeStyle=orthogonalEdgeStyle;rounded=0;orthogonalLoop=1;jettySize=auto;html=1;entryX=0.5;entryY=0;entryDx=0;entryDy=0;fontSize=12;startSize=8;endSize=8;" parent="1" source="mIFlO-JkNO0YrqFu7DN3-1" target="mIFlO-JkNO0YrqFu7DN3-2" edge="1">
          <mxGeometry relative="1" as="geometry">
            <Array as="points">
              <mxPoint x="-560" y="240" />
              <mxPoint x="-740" y="240" />
            </Array>
          </mxGeometry>
        </mxCell>
        <mxCell id="mIFlO-JkNO0YrqFu7DN3-1" value="&lt;font face=&quot;Avenir&quot;&gt;Conditional&lt;/font&gt;" style="rounded=0;whiteSpace=wrap;html=1;fillColor=#A7D1A7;" parent="1" vertex="1">
          <mxGeometry x="-600" y="160" width="80" height="40" as="geometry" />
        </mxCell>
        <mxCell id="mIFlO-JkNO0YrqFu7DN3-2" value="&lt;font face=&quot;Avenir&quot;&gt;IF&lt;/font&gt;" style="rounded=0;whiteSpace=wrap;html=1;fillColor=light-dark(#c3abd0, #294e29);" parent="1" vertex="1">
          <mxGeometry x="-780" y="280" width="80" height="40" as="geometry" />
        </mxCell>
        <mxCell id="mIFlO-JkNO0YrqFu7DN3-18" style="edgeStyle=none;curved=1;rounded=0;orthogonalLoop=1;jettySize=auto;html=1;exitX=0.5;exitY=1;exitDx=0;exitDy=0;entryX=0.5;entryY=0;entryDx=0;entryDy=0;fontSize=12;startSize=8;endSize=8;" parent="1" source="mIFlO-JkNO0YrqFu7DN3-3" target="mIFlO-JkNO0YrqFu7DN3-16" edge="1">
          <mxGeometry relative="1" as="geometry" />
        </mxCell>
        <mxCell id="mIFlO-JkNO0YrqFu7DN3-3" value="&lt;font face=&quot;Avenir&quot;&gt;Condition&lt;/font&gt;" style="rounded=0;whiteSpace=wrap;html=1;fillColor=#A7D1A7;" parent="1" vertex="1">
          <mxGeometry x="-660" y="280" width="80" height="40" as="geometry" />
        </mxCell>
        <mxCell id="mIFlO-JkNO0YrqFu7DN3-19" style="edgeStyle=none;curved=1;rounded=0;orthogonalLoop=1;jettySize=auto;html=1;entryX=0.5;entryY=0;entryDx=0;entryDy=0;fontSize=12;startSize=8;endSize=8;" parent="1" source="mIFlO-JkNO0YrqFu7DN3-4" target="mIFlO-JkNO0YrqFu7DN3-17" edge="1">
          <mxGeometry relative="1" as="geometry" />
        </mxCell>
        <mxCell id="mIFlO-JkNO0YrqFu7DN3-4" value="&lt;font face=&quot;Avenir&quot;&gt;Statement&lt;/font&gt;" style="rounded=0;whiteSpace=wrap;html=1;fillColor=#A7D1A7;" parent="1" vertex="1">
          <mxGeometry x="-420" y="280" width="80" height="40" as="geometry" />
        </mxCell>
        <mxCell id="mIFlO-JkNO0YrqFu7DN3-5" value="&lt;font face=&quot;Avenir&quot;&gt;Non-Terminal&lt;/font&gt;" style="rounded=0;whiteSpace=wrap;html=1;fillColor=#A7D1A7;" parent="1" vertex="1">
          <mxGeometry x="-440" y="120" width="80" height="40" as="geometry" />
        </mxCell>
        <mxCell id="mIFlO-JkNO0YrqFu7DN3-7" value="&lt;font face=&quot;Avenir&quot;&gt;Terminal&lt;/font&gt;" style="rounded=0;whiteSpace=wrap;html=1;fillColor=#C3ABD0;" parent="1" vertex="1">
          <mxGeometry x="-440" y="160" width="80" height="40" as="geometry" />
        </mxCell>
        <mxCell id="mIFlO-JkNO0YrqFu7DN3-8" value="&lt;font face=&quot;Avenir&quot;&gt;THEN&lt;/font&gt;" style="rounded=0;whiteSpace=wrap;html=1;fillColor=light-dark(#c3abd0, #294e29);" parent="1" vertex="1">
          <mxGeometry x="-540" y="280" width="80" height="40" as="geometry" />
        </mxCell>
        <mxCell id="mIFlO-JkNO0YrqFu7DN3-14" style="edgeStyle=orthogonalEdgeStyle;rounded=0;orthogonalLoop=1;jettySize=auto;html=1;entryX=0.5;entryY=0;entryDx=0;entryDy=0;fontSize=12;startSize=8;endSize=8;exitX=0.5;exitY=1;exitDx=0;exitDy=0;" parent="1" source="mIFlO-JkNO0YrqFu7DN3-1" target="mIFlO-JkNO0YrqFu7DN3-3" edge="1">
          <mxGeometry relative="1" as="geometry">
            <mxPoint x="-550" y="210" as="sourcePoint" />
            <mxPoint x="-730" y="290" as="targetPoint" />
            <Array as="points">
              <mxPoint x="-560" y="240" />
              <mxPoint x="-620" y="240" />
            </Array>
          </mxGeometry>
        </mxCell>
        <mxCell id="mIFlO-JkNO0YrqFu7DN3-15" style="edgeStyle=orthogonalEdgeStyle;rounded=0;orthogonalLoop=1;jettySize=auto;html=1;entryX=0.5;entryY=0;entryDx=0;entryDy=0;fontSize=12;startSize=8;endSize=8;exitX=0.5;exitY=1;exitDx=0;exitDy=0;" parent="1" source="mIFlO-JkNO0YrqFu7DN3-1" target="mIFlO-JkNO0YrqFu7DN3-4" edge="1">
          <mxGeometry relative="1" as="geometry">
            <mxPoint x="-550" y="210" as="sourcePoint" />
            <mxPoint x="-610" y="290" as="targetPoint" />
            <Array as="points">
              <mxPoint x="-560" y="240" />
              <mxPoint x="-380" y="240" />
            </Array>
          </mxGeometry>
        </mxCell>
        <mxCell id="mIFlO-JkNO0YrqFu7DN3-16" value="&lt;font face=&quot;Avenir&quot;&gt;SENTENCE&lt;/font&gt;" style="rounded=0;whiteSpace=wrap;html=1;fillColor=light-dark(#c3abd0, #294e29);" parent="1" vertex="1">
          <mxGeometry x="-660" y="360" width="80" height="40" as="geometry" />
        </mxCell>
        <mxCell id="mIFlO-JkNO0YrqFu7DN3-17" value="&lt;font face=&quot;Avenir&quot;&gt;SENTENCE&lt;/font&gt;" style="rounded=0;whiteSpace=wrap;html=1;fillColor=light-dark(#c3abd0, #294e29);" parent="1" vertex="1">
          <mxGeometry x="-420" y="360" width="80" height="40" as="geometry" />
        </mxCell>
        <mxCell id="5_p8MwsJ-TnmLGE_cLR3-1" value="" style="rounded=0;whiteSpace=wrap;html=1;fillColor=#E6E6E6;" parent="1" vertex="1">
          <mxGeometry x="240" y="1390" width="240" height="140" as="geometry" />
        </mxCell>
        <mxCell id="5_p8MwsJ-TnmLGE_cLR3-2" value="" style="rounded=0;whiteSpace=wrap;html=1;fillColor=#E6E6E6;" parent="1" vertex="1">
          <mxGeometry x="180" y="1260" width="390" height="80" as="geometry" />
        </mxCell>
        <mxCell id="5_p8MwsJ-TnmLGE_cLR3-4" value="&lt;font face=&quot;Avenir&quot;&gt;Language&lt;/font&gt;" style="rounded=0;whiteSpace=wrap;html=1;fillColor=#C3ABD0;" parent="1" vertex="1">
          <mxGeometry x="320" y="1180" width="80" height="40" as="geometry" />
        </mxCell>
        <mxCell id="5_p8MwsJ-TnmLGE_cLR3-32" style="edgeStyle=orthogonalEdgeStyle;rounded=0;orthogonalLoop=1;jettySize=auto;html=1;entryX=0;entryY=0.5;entryDx=0;entryDy=0;fontSize=12;startSize=8;endSize=8;" parent="1" source="5_p8MwsJ-TnmLGE_cLR3-6" target="5_p8MwsJ-TnmLGE_cLR3-4" edge="1">
          <mxGeometry relative="1" as="geometry" />
        </mxCell>
        <mxCell id="5_p8MwsJ-TnmLGE_cLR3-33" style="edgeStyle=none;curved=1;rounded=0;orthogonalLoop=1;jettySize=auto;html=1;entryX=0.5;entryY=0;entryDx=0;entryDy=0;fontSize=12;startSize=8;endSize=8;" parent="1" source="5_p8MwsJ-TnmLGE_cLR3-6" target="5_p8MwsJ-TnmLGE_cLR3-10" edge="1">
          <mxGeometry relative="1" as="geometry" />
        </mxCell>
        <mxCell id="5_p8MwsJ-TnmLGE_cLR3-34" style="edgeStyle=orthogonalEdgeStyle;rounded=0;orthogonalLoop=1;jettySize=auto;html=1;entryX=0.5;entryY=0;entryDx=0;entryDy=0;fontSize=12;startSize=8;endSize=8;strokeColor=default;" parent="1" source="5_p8MwsJ-TnmLGE_cLR3-6" target="5_p8MwsJ-TnmLGE_cLR3-12" edge="1">
          <mxGeometry relative="1" as="geometry">
            <Array as="points">
              <mxPoint x="240" y="1230" />
              <mxPoint x="360" y="1230" />
            </Array>
          </mxGeometry>
        </mxCell>
        <mxCell id="5_p8MwsJ-TnmLGE_cLR3-35" style="edgeStyle=orthogonalEdgeStyle;rounded=0;orthogonalLoop=1;jettySize=auto;html=1;entryX=0.5;entryY=0;entryDx=0;entryDy=0;fontSize=12;startSize=8;endSize=8;" parent="1" source="5_p8MwsJ-TnmLGE_cLR3-6" target="5_p8MwsJ-TnmLGE_cLR3-31" edge="1">
          <mxGeometry relative="1" as="geometry">
            <Array as="points">
              <mxPoint x="240" y="1230" />
              <mxPoint x="500" y="1230" />
            </Array>
          </mxGeometry>
        </mxCell>
        <mxCell id="5_p8MwsJ-TnmLGE_cLR3-6" value="&lt;font face=&quot;Avenir&quot;&gt;DESIGNER&lt;/font&gt;" style="text;html=1;align=center;verticalAlign=middle;resizable=0;points=[];autosize=1;strokeColor=none;fillColor=none;" parent="1" vertex="1">
          <mxGeometry x="200" y="1185" width="80" height="30" as="geometry" />
        </mxCell>
        <mxCell id="5_p8MwsJ-TnmLGE_cLR3-36" style="edgeStyle=orthogonalEdgeStyle;rounded=0;orthogonalLoop=1;jettySize=auto;html=1;entryX=0.5;entryY=0;entryDx=0;entryDy=0;fontSize=12;startSize=8;endSize=8;startArrow=classic;startFill=1;" parent="1" source="5_p8MwsJ-TnmLGE_cLR3-10" target="5_p8MwsJ-TnmLGE_cLR3-16" edge="1">
          <mxGeometry relative="1" as="geometry">
            <Array as="points">
              <mxPoint x="240" y="1370" />
              <mxPoint x="360" y="1370" />
            </Array>
          </mxGeometry>
        </mxCell>
        <mxCell id="5_p8MwsJ-TnmLGE_cLR3-10" value="&lt;font face=&quot;Avenir&quot;&gt;Parser&lt;/font&gt;" style="rounded=0;whiteSpace=wrap;html=1;fillColor=light-dark(#c3abd0, #4e617e);" parent="1" vertex="1">
          <mxGeometry x="200" y="1280" width="80" height="40" as="geometry" />
        </mxCell>
        <mxCell id="5_p8MwsJ-TnmLGE_cLR3-37" style="edgeStyle=orthogonalEdgeStyle;rounded=0;orthogonalLoop=1;jettySize=auto;html=1;exitX=0.5;exitY=1;exitDx=0;exitDy=0;fontSize=12;startSize=8;endSize=8;startArrow=classic;startFill=1;" parent="1" source="5_p8MwsJ-TnmLGE_cLR3-12" target="5_p8MwsJ-TnmLGE_cLR3-16" edge="1">
          <mxGeometry relative="1" as="geometry" />
        </mxCell>
        <mxCell id="5_p8MwsJ-TnmLGE_cLR3-12" value="&lt;font face=&quot;Avenir&quot;&gt;Lexer&lt;/font&gt;" style="rounded=0;whiteSpace=wrap;html=1;fillColor=light-dark(#c3abd0, #4e617e);" parent="1" vertex="1">
          <mxGeometry x="320" y="1280" width="80" height="40" as="geometry" />
        </mxCell>
        <mxCell id="5_p8MwsJ-TnmLGE_cLR3-16" value="&lt;font face=&quot;Avenir&quot;&gt;IDE&lt;/font&gt;" style="rounded=0;whiteSpace=wrap;html=1;fillColor=#91A8C9;" parent="1" vertex="1">
          <mxGeometry x="260" y="1400" width="200" height="40" as="geometry" />
        </mxCell>
        <mxCell id="5_p8MwsJ-TnmLGE_cLR3-40" style="edgeStyle=none;curved=1;rounded=0;orthogonalLoop=1;jettySize=auto;html=1;entryX=0.5;entryY=1;entryDx=0;entryDy=0;fontSize=12;startSize=8;endSize=8;startArrow=block;startFill=1;" parent="1" source="5_p8MwsJ-TnmLGE_cLR3-19" target="5_p8MwsJ-TnmLGE_cLR3-16" edge="1">
          <mxGeometry relative="1" as="geometry" />
        </mxCell>
        <mxCell id="5_p8MwsJ-TnmLGE_cLR3-19" value="&lt;font face=&quot;Avenir&quot;&gt;Contract&lt;/font&gt;" style="rounded=0;whiteSpace=wrap;html=1;fillColor=#C3ABD0;" parent="1" vertex="1">
          <mxGeometry x="320" y="1475" width="80" height="40" as="geometry" />
        </mxCell>
        <mxCell id="5_p8MwsJ-TnmLGE_cLR3-21" style="edgeStyle=orthogonalEdgeStyle;rounded=0;orthogonalLoop=1;jettySize=auto;html=1;entryX=0.5;entryY=1;entryDx=0;entryDy=0;" parent="1" source="5_p8MwsJ-TnmLGE_cLR3-22" target="5_p8MwsJ-TnmLGE_cLR3-19" edge="1">
          <mxGeometry relative="1" as="geometry" />
        </mxCell>
        <mxCell id="5_p8MwsJ-TnmLGE_cLR3-22" value="&lt;font face=&quot;Avenir&quot;&gt;LAWYER&lt;/font&gt;" style="text;html=1;align=center;verticalAlign=middle;resizable=0;points=[];autosize=1;strokeColor=none;fillColor=none;" parent="1" vertex="1">
          <mxGeometry x="325" y="1540" width="70" height="30" as="geometry" />
        </mxCell>
        <mxCell id="5_p8MwsJ-TnmLGE_cLR3-23" value="&lt;font face=&quot;Avenir&quot;&gt;Designer&amp;nbsp;&lt;/font&gt;&lt;div&gt;&lt;font face=&quot;Avenir&quot;&gt;Facing&lt;/font&gt;&lt;/div&gt;" style="text;html=1;align=center;verticalAlign=middle;resizable=0;points=[];autosize=1;strokeColor=none;fillColor=none;" parent="1" vertex="1">
          <mxGeometry x="100" y="1280" width="80" height="40" as="geometry" />
        </mxCell>
        <mxCell id="5_p8MwsJ-TnmLGE_cLR3-24" value="&lt;font face=&quot;Avenir&quot;&gt;Lawyer Facing&lt;/font&gt;" style="text;html=1;align=center;verticalAlign=middle;resizable=0;points=[];autosize=1;strokeColor=none;fillColor=none;" parent="1" vertex="1">
          <mxGeometry x="145" y="1475" width="100" height="30" as="geometry" />
        </mxCell>
        <mxCell id="5_p8MwsJ-TnmLGE_cLR3-25" value="&lt;font face=&quot;Avenir&quot;&gt;User/Dev Interactions&lt;/font&gt;" style="rounded=0;whiteSpace=wrap;html=1;fillColor=#C3ABD0;" parent="1" vertex="1">
          <mxGeometry x="680" y="1200" width="80" height="40" as="geometry" />
        </mxCell>
        <mxCell id="5_p8MwsJ-TnmLGE_cLR3-26" value="&lt;font face=&quot;Avenir&quot;&gt;Interface&lt;/font&gt;" style="rounded=0;whiteSpace=wrap;html=1;fillColor=light-dark(#91a8c9, #294e29);" parent="1" vertex="1">
          <mxGeometry x="680" y="1240" width="80" height="40" as="geometry" />
        </mxCell>
        <mxCell id="5_p8MwsJ-TnmLGE_cLR3-38" style="edgeStyle=orthogonalEdgeStyle;rounded=0;orthogonalLoop=1;jettySize=auto;html=1;entryX=0.5;entryY=0;entryDx=0;entryDy=0;fontSize=12;startSize=8;endSize=8;startArrow=classic;startFill=1;" parent="1" source="5_p8MwsJ-TnmLGE_cLR3-31" target="5_p8MwsJ-TnmLGE_cLR3-16" edge="1">
          <mxGeometry relative="1" as="geometry">
            <Array as="points">
              <mxPoint x="500" y="1370" />
              <mxPoint x="360" y="1370" />
            </Array>
          </mxGeometry>
        </mxCell>
        <mxCell id="5_p8MwsJ-TnmLGE_cLR3-31" value="&lt;font face=&quot;Avenir&quot;&gt;Language Server Protocol&lt;/font&gt;" style="rounded=0;whiteSpace=wrap;html=1;fillColor=light-dark(#c3abd0, #4e617e);" parent="1" vertex="1">
          <mxGeometry x="440" y="1280" width="120" height="40" as="geometry" />
        </mxCell>
        <mxCell id="NY-ZdKfG21k544bjwJPL-24" value="&lt;font face=&quot;Avenir&quot;&gt;BNF Form&lt;/font&gt;" style="rounded=0;whiteSpace=wrap;html=1;fillColor=#A7D1A7;" parent="1" vertex="1">
          <mxGeometry x="-640" y="680" width="80" height="40" as="geometry" />
        </mxCell>
        <mxCell id="NY-ZdKfG21k544bjwJPL-29" value="&lt;font style=&quot;font-size: 12px;&quot; face=&quot;Avenir&quot;&gt;Current Symbol&lt;/font&gt;" style="rounded=0;whiteSpace=wrap;html=1;fillColor=#FFE599;" parent="1" vertex="1">
          <mxGeometry x="-480" y="680" width="80" height="40" as="geometry" />
        </mxCell>
        <mxCell id="NY-ZdKfG21k544bjwJPL-32" value="&lt;font style=&quot;font-size: 12px;&quot; face=&quot;Avenir&quot;&gt;Previous Symbol&lt;/font&gt;" style="rounded=0;whiteSpace=wrap;html=1;fillColor=#A9C4EB;" parent="1" vertex="1">
          <mxGeometry x="-400" y="680" width="80" height="40" as="geometry" />
        </mxCell>
        <mxCell id="NY-ZdKfG21k544bjwJPL-33" value="&lt;font style=&quot;font-size: 12px;&quot; face=&quot;Avenir&quot;&gt;Next&lt;/font&gt;&lt;font style=&quot;font-size: 12px;&quot; face=&quot;Avenir&quot;&gt;&amp;nbsp;&lt;/font&gt;&lt;div&gt;&lt;font style=&quot;font-size: 12px;&quot; face=&quot;Avenir&quot;&gt;Symbol&lt;/font&gt;&lt;/div&gt;" style="rounded=0;whiteSpace=wrap;html=1;fillColor=#C3ABD0;" parent="1" vertex="1">
          <mxGeometry x="-320" y="680" width="80" height="40" as="geometry" />
        </mxCell>
        <mxCell id="NY-ZdKfG21k544bjwJPL-34" value="&lt;font style=&quot;font-size: 12px;&quot; face=&quot;Avenir&quot;&gt;Parent&lt;/font&gt;&lt;div&gt;&lt;font style=&quot;font-size: 12px;&quot; face=&quot;Avenir&quot;&gt;Symbol&lt;/font&gt;&lt;/div&gt;" style="rounded=0;whiteSpace=wrap;html=1;fillColor=#E1D5E7;" parent="1" vertex="1">
          <mxGeometry x="-240" y="680" width="80" height="40" as="geometry" />
        </mxCell>
        <mxCell id="NY-ZdKfG21k544bjwJPL-38" value="" style="rounded=0;whiteSpace=wrap;html=1;fillColor=#E1D5E7;" parent="1" vertex="1">
          <mxGeometry x="-609" y="740" width="140" height="30" as="geometry" />
        </mxCell>
        <mxCell id="NY-ZdKfG21k544bjwJPL-41" value="&lt;font style=&quot;font-size: 18px;&quot; face=&quot;Avenir&quot;&gt;&lt;span style=&quot;white-space: pre;&quot;&gt;&#x9;&lt;/span&gt;&amp;lt;specific-date&amp;gt; ::= on the &amp;lt;num&amp;gt; &amp;lt;month&amp;gt; &amp;lt;num&amp;gt;&lt;/font&gt;&lt;div&gt;&lt;font style=&quot;font-size: 18px;&quot; face=&quot;Avenir&quot;&gt;&lt;span style=&quot;white-space: pre;&quot;&gt;&#x9;&lt;span style=&quot;white-space: pre;&quot;&gt;&#x9;&lt;/span&gt;&lt;/span&gt;| on &amp;lt;num&amp;gt; &amp;lt;month&amp;gt; &amp;lt;num&amp;gt;&lt;br&gt;&lt;/font&gt;&lt;/div&gt;&lt;div&gt;&lt;font style=&quot;font-size: 18px;&quot; face=&quot;Avenir&quot;&gt;&lt;span style=&quot;white-space: pre;&quot;&gt;&#x9;&lt;/span&gt;&lt;span style=&quot;white-space: pre;&quot;&gt;&#x9;&lt;/span&gt;;&lt;br&gt;&lt;/font&gt;&lt;/div&gt;" style="rounded=0;whiteSpace=wrap;html=1;fillColor=none;align=left;" parent="1" vertex="1">
          <mxGeometry x="-640" y="720" width="480" height="120" as="geometry" />
        </mxCell>
        <mxCell id="NY-ZdKfG21k544bjwJPL-53" value="" style="shape=flexArrow;endArrow=classic;html=1;rounded=0;entryX=0.5;entryY=0;entryDx=0;entryDy=0;exitX=0.5;exitY=1;exitDx=0;exitDy=0;" parent="1" source="NY-ZdKfG21k544bjwJPL-41" target="NY-ZdKfG21k544bjwJPL-31" edge="1">
          <mxGeometry width="50" height="50" relative="1" as="geometry">
            <mxPoint x="-400" y="850" as="sourcePoint" />
            <mxPoint x="-350" y="740" as="targetPoint" />
          </mxGeometry>
        </mxCell>
        <mxCell id="NY-ZdKfG21k544bjwJPL-58" value="&lt;font face=&quot;Avenir&quot;&gt;Tuple Form&lt;/font&gt;" style="rounded=0;whiteSpace=wrap;html=1;fillColor=#A7D1A7;" parent="1" vertex="1">
          <mxGeometry x="-238" y="950" width="80" height="40" as="geometry" />
        </mxCell>
        <mxCell id="NY-ZdKfG21k544bjwJPL-65" value="" style="group" parent="1" vertex="1" connectable="0">
          <mxGeometry x="-640" y="910" width="480" height="40" as="geometry" />
        </mxCell>
        <mxCell id="NY-ZdKfG21k544bjwJPL-66" value="" style="rounded=0;whiteSpace=wrap;html=1;fillColor=#C3ABD0;" parent="NY-ZdKfG21k544bjwJPL-65" vertex="1">
          <mxGeometry x="382" y="5" width="60" height="30" as="geometry" />
        </mxCell>
        <mxCell id="NY-ZdKfG21k544bjwJPL-67" value="" style="rounded=0;whiteSpace=wrap;html=1;fillColor=#FFE599;" parent="NY-ZdKfG21k544bjwJPL-65" vertex="1">
          <mxGeometry x="41" y="5" width="79" height="30" as="geometry" />
        </mxCell>
        <mxCell id="NY-ZdKfG21k544bjwJPL-68" value="" style="rounded=0;whiteSpace=wrap;html=1;fillColor=#A9C4EB;" parent="NY-ZdKfG21k544bjwJPL-65" vertex="1">
          <mxGeometry x="129" y="5" width="60" height="30" as="geometry" />
        </mxCell>
        <mxCell id="NY-ZdKfG21k544bjwJPL-69" value="" style="rounded=0;whiteSpace=wrap;html=1;fillColor=#E1D5E7;" parent="NY-ZdKfG21k544bjwJPL-65" vertex="1">
          <mxGeometry x="196" y="5" width="130" height="30" as="geometry" />
        </mxCell>
        <mxCell id="NY-ZdKfG21k544bjwJPL-70" value="&lt;font style=&quot;font-size: 18px;&quot; face=&quot;Avenir&quot;&gt;&amp;nbsp;(&amp;nbsp; &amp;lt;month&amp;gt;, &amp;lt;num&amp;gt;,&amp;nbsp; &amp;nbsp;&lt;/font&gt;&lt;span style=&quot;font-family: Avenir; font-size: 18px;&quot;&gt;&amp;nbsp;&amp;nbsp;&lt;/span&gt;&lt;font style=&quot;font-size: 18px;&quot; face=&quot;Avenir&quot;&gt;&amp;nbsp;&amp;nbsp; ERROR&amp;nbsp; &amp;nbsp; &amp;nbsp; &amp;nbsp; &amp;nbsp;) -&amp;gt; {&amp;nbsp; &amp;lt;num&amp;gt;&amp;nbsp; }&lt;/font&gt;" style="rounded=0;whiteSpace=wrap;html=1;fillColor=none;align=center;" parent="NY-ZdKfG21k544bjwJPL-65" vertex="1">
          <mxGeometry width="480" height="40" as="geometry" />
        </mxCell>
        <mxCell id="NY-ZdKfG21k544bjwJPL-54" value="" style="group" parent="1" vertex="1" connectable="0">
          <mxGeometry x="-640" y="870" width="480" height="40" as="geometry" />
        </mxCell>
        <mxCell id="NY-ZdKfG21k544bjwJPL-49" value="" style="rounded=0;whiteSpace=wrap;html=1;fillColor=#C3ABD0;" parent="NY-ZdKfG21k544bjwJPL-54" vertex="1">
          <mxGeometry x="382" y="5" width="60" height="30" as="geometry" />
        </mxCell>
        <mxCell id="NY-ZdKfG21k544bjwJPL-51" value="" style="rounded=0;whiteSpace=wrap;html=1;fillColor=#FFE599;" parent="NY-ZdKfG21k544bjwJPL-54" vertex="1">
          <mxGeometry x="41" y="5" width="79" height="30" as="geometry" />
        </mxCell>
        <mxCell id="NY-ZdKfG21k544bjwJPL-50" value="" style="rounded=0;whiteSpace=wrap;html=1;fillColor=#A9C4EB;" parent="NY-ZdKfG21k544bjwJPL-54" vertex="1">
          <mxGeometry x="129" y="5" width="60" height="30" as="geometry" />
        </mxCell>
        <mxCell id="NY-ZdKfG21k544bjwJPL-52" value="" style="rounded=0;whiteSpace=wrap;html=1;fillColor=#E1D5E7;" parent="NY-ZdKfG21k544bjwJPL-54" vertex="1">
          <mxGeometry x="196" y="5" width="130" height="30" as="geometry" />
        </mxCell>
        <mxCell id="NY-ZdKfG21k544bjwJPL-31" value="&lt;font style=&quot;font-size: 18px;&quot; face=&quot;Avenir&quot;&gt;&amp;nbsp;(&amp;nbsp; &amp;lt;month&amp;gt;, &amp;lt;num&amp;gt;, &amp;lt;specific-date&amp;gt;&amp;nbsp; ) -&amp;gt; {&amp;nbsp; &amp;lt;num&amp;gt;&amp;nbsp; }&lt;/font&gt;" style="rounded=0;whiteSpace=wrap;html=1;fillColor=none;align=center;" parent="NY-ZdKfG21k544bjwJPL-54" vertex="1">
          <mxGeometry width="480" height="40" as="geometry" />
        </mxCell>
        <mxCell id="NY-ZdKfG21k544bjwJPL-71" value="&lt;font style=&quot;font-size: 12px;&quot; face=&quot;Avenir&quot;&gt;Current Symbol&lt;/font&gt;" style="rounded=0;whiteSpace=wrap;html=1;fillColor=#FFE599;" parent="1" vertex="1">
          <mxGeometry x="120" y="770" width="80" height="40" as="geometry" />
        </mxCell>
        <mxCell id="NY-ZdKfG21k544bjwJPL-72" value="&lt;font style=&quot;font-size: 12px;&quot; face=&quot;Avenir&quot;&gt;CC-IDE Output&lt;/font&gt;" style="rounded=0;whiteSpace=wrap;html=1;fillColor=#A9C4EB;" parent="1" vertex="1">
          <mxGeometry x="400" y="920" width="80" height="40" as="geometry" />
        </mxCell>
        <mxCell id="NY-ZdKfG21k544bjwJPL-82" style="edgeStyle=orthogonalEdgeStyle;rounded=0;orthogonalLoop=1;jettySize=auto;html=1;entryX=0;entryY=0;entryDx=0;entryDy=0;" parent="1" source="NY-ZdKfG21k544bjwJPL-73" target="NY-ZdKfG21k544bjwJPL-80" edge="1">
          <mxGeometry relative="1" as="geometry">
            <Array as="points">
              <mxPoint x="150" y="940" />
              <mxPoint x="150" y="940" />
            </Array>
          </mxGeometry>
        </mxCell>
        <mxCell id="NY-ZdKfG21k544bjwJPL-73" value="&lt;font face=&quot;Avenir&quot;&gt;Configuration&lt;/font&gt;" style="rounded=0;whiteSpace=wrap;html=1;fillColor=#C3ABD0;" parent="1" vertex="1">
          <mxGeometry x="40" y="920" width="80" height="40" as="geometry" />
        </mxCell>
        <mxCell id="NY-ZdKfG21k544bjwJPL-74" value="&lt;font face=&quot;Avenir&quot;&gt;Syntax Highlighting&lt;/font&gt;" style="rounded=0;whiteSpace=wrap;html=1;fillColor=#E1D5E7;" parent="1" vertex="1">
          <mxGeometry x="160" y="900" width="80" height="40" as="geometry" />
        </mxCell>
        <mxCell id="NY-ZdKfG21k544bjwJPL-84" style="edgeStyle=orthogonalEdgeStyle;rounded=0;orthogonalLoop=1;jettySize=auto;html=1;entryX=0;entryY=0.5;entryDx=0;entryDy=0;" parent="1" source="NY-ZdKfG21k544bjwJPL-75" target="NY-ZdKfG21k544bjwJPL-72" edge="1">
          <mxGeometry relative="1" as="geometry" />
        </mxCell>
        <mxCell id="NY-ZdKfG21k544bjwJPL-75" value="&lt;font face=&quot;Avenir&quot;&gt;Parser CSS&lt;/font&gt;" style="rounded=0;whiteSpace=wrap;html=1;fillColor=#A7D1A7;" parent="1" vertex="1">
          <mxGeometry x="280" y="920" width="80" height="40" as="geometry" />
        </mxCell>
        <mxCell id="NY-ZdKfG21k544bjwJPL-83" style="edgeStyle=orthogonalEdgeStyle;rounded=0;orthogonalLoop=1;jettySize=auto;html=1;entryX=0;entryY=0.5;entryDx=0;entryDy=0;exitX=1;exitY=0;exitDx=0;exitDy=0;" parent="1" source="NY-ZdKfG21k544bjwJPL-80" target="NY-ZdKfG21k544bjwJPL-75" edge="1">
          <mxGeometry relative="1" as="geometry">
            <Array as="points">
              <mxPoint x="250" y="940" />
              <mxPoint x="250" y="940" />
            </Array>
          </mxGeometry>
        </mxCell>
        <mxCell id="NY-ZdKfG21k544bjwJPL-80" value="&lt;font face=&quot;Avenir&quot;&gt;Auto-Formatting&lt;/font&gt;" style="rounded=0;whiteSpace=wrap;html=1;fillColor=#E1D5E7;" parent="1" vertex="1">
          <mxGeometry x="160" y="940" width="80" height="40" as="geometry" />
        </mxCell>
        <mxCell id="GevD9DxRQOt9VJw2yY9d-1" value="" style="rounded=0;whiteSpace=wrap;html=1;fillColor=#E6E6E6;" vertex="1" parent="1">
          <mxGeometry x="-582" y="1500" width="240" height="210" as="geometry" />
        </mxCell>
        <mxCell id="GevD9DxRQOt9VJw2yY9d-2" value="" style="rounded=0;whiteSpace=wrap;html=1;fillColor=#E6E6E6;" vertex="1" parent="1">
          <mxGeometry x="-582" y="1190" width="120" height="300" as="geometry" />
        </mxCell>
        <mxCell id="GevD9DxRQOt9VJw2yY9d-3" style="edgeStyle=orthogonalEdgeStyle;rounded=0;orthogonalLoop=1;jettySize=auto;html=1;entryX=0;entryY=0.5;entryDx=0;entryDy=0;exitX=1;exitY=0.5;exitDx=0;exitDy=0;" edge="1" parent="1" source="GevD9DxRQOt9VJw2yY9d-4" target="GevD9DxRQOt9VJw2yY9d-8">
          <mxGeometry relative="1" as="geometry" />
        </mxCell>
        <mxCell id="GevD9DxRQOt9VJw2yY9d-4" value="&lt;font face=&quot;Avenir&quot;&gt;BNF&lt;/font&gt;" style="rounded=0;whiteSpace=wrap;html=1;fillColor=#C3ABD0;" vertex="1" parent="1">
          <mxGeometry x="-562" y="1200" width="80" height="40" as="geometry" />
        </mxCell>
        <mxCell id="GevD9DxRQOt9VJw2yY9d-5" style="edgeStyle=orthogonalEdgeStyle;rounded=0;orthogonalLoop=1;jettySize=auto;html=1;entryX=0.5;entryY=0;entryDx=0;entryDy=0;" edge="1" parent="1" source="GevD9DxRQOt9VJw2yY9d-6" target="GevD9DxRQOt9VJw2yY9d-4">
          <mxGeometry relative="1" as="geometry" />
        </mxCell>
        <mxCell id="GevD9DxRQOt9VJw2yY9d-6" value="&lt;font face=&quot;Avenir&quot;&gt;DESIGNER&lt;/font&gt;" style="text;html=1;align=center;verticalAlign=middle;resizable=0;points=[];autosize=1;strokeColor=none;fillColor=none;" vertex="1" parent="1">
          <mxGeometry x="-562" y="1140" width="80" height="30" as="geometry" />
        </mxCell>
        <mxCell id="GevD9DxRQOt9VJw2yY9d-7" style="edgeStyle=orthogonalEdgeStyle;rounded=0;orthogonalLoop=1;jettySize=auto;html=1;exitX=0.5;exitY=1;exitDx=0;exitDy=0;entryX=1;entryY=0.5;entryDx=0;entryDy=0;" edge="1" parent="1" source="GevD9DxRQOt9VJw2yY9d-8" target="GevD9DxRQOt9VJw2yY9d-31">
          <mxGeometry relative="1" as="geometry">
            <mxPoint x="-480" y="1300" as="targetPoint" />
          </mxGeometry>
        </mxCell>
        <mxCell id="GevD9DxRQOt9VJw2yY9d-8" value="&lt;font face=&quot;Avenir&quot;&gt;ANTLR&lt;/font&gt;" style="rounded=0;whiteSpace=wrap;html=1;fillColor=#A7D1A7;" vertex="1" parent="1">
          <mxGeometry x="-442" y="1200" width="80" height="40" as="geometry" />
        </mxCell>
        <mxCell id="GevD9DxRQOt9VJw2yY9d-9" style="edgeStyle=orthogonalEdgeStyle;rounded=0;orthogonalLoop=1;jettySize=auto;html=1;exitX=0.5;exitY=1;exitDx=0;exitDy=0;" edge="1" parent="1" source="GevD9DxRQOt9VJw2yY9d-31" target="GevD9DxRQOt9VJw2yY9d-12">
          <mxGeometry relative="1" as="geometry">
            <mxPoint x="-522" y="1320" as="sourcePoint" />
          </mxGeometry>
        </mxCell>
        <mxCell id="GevD9DxRQOt9VJw2yY9d-11" style="edgeStyle=orthogonalEdgeStyle;rounded=0;orthogonalLoop=1;jettySize=auto;html=1;entryX=0;entryY=0.5;entryDx=0;entryDy=0;" edge="1" parent="1" source="GevD9DxRQOt9VJw2yY9d-12" target="GevD9DxRQOt9VJw2yY9d-15">
          <mxGeometry relative="1" as="geometry">
            <mxPoint x="-522" y="1440" as="targetPoint" />
          </mxGeometry>
        </mxCell>
        <mxCell id="GevD9DxRQOt9VJw2yY9d-12" value="&lt;font face=&quot;Avenir&quot;&gt;Tree-Sitter Grammar&lt;/font&gt;" style="rounded=0;whiteSpace=wrap;html=1;fillColor=#91A8C9;" vertex="1" parent="1">
          <mxGeometry x="-562" y="1360" width="80" height="40" as="geometry" />
        </mxCell>
        <mxCell id="GevD9DxRQOt9VJw2yY9d-14" style="edgeStyle=orthogonalEdgeStyle;rounded=0;orthogonalLoop=1;jettySize=auto;html=1;entryX=1;entryY=0.5;entryDx=0;entryDy=0;exitX=0.5;exitY=1;exitDx=0;exitDy=0;" edge="1" parent="1" source="GevD9DxRQOt9VJw2yY9d-15" target="GevD9DxRQOt9VJw2yY9d-34">
          <mxGeometry relative="1" as="geometry">
            <mxPoint x="-482" y="1460" as="targetPoint" />
          </mxGeometry>
        </mxCell>
        <mxCell id="GevD9DxRQOt9VJw2yY9d-15" value="&lt;font face=&quot;Avenir&quot;&gt;Tree-Sitter&lt;/font&gt;" style="rounded=0;whiteSpace=wrap;html=1;fillColor=#A7D1A7;" vertex="1" parent="1">
          <mxGeometry x="-442" y="1360" width="80" height="40" as="geometry" />
        </mxCell>
        <mxCell id="GevD9DxRQOt9VJw2yY9d-16" value="&lt;font face=&quot;Avenir&quot;&gt;Computable Contract IDE&lt;/font&gt;" style="rounded=0;whiteSpace=wrap;html=1;fillColor=#91A8C9;" vertex="1" parent="1">
          <mxGeometry x="-562" y="1520" width="200" height="40" as="geometry" />
        </mxCell>
        <mxCell id="GevD9DxRQOt9VJw2yY9d-17" style="edgeStyle=orthogonalEdgeStyle;rounded=0;orthogonalLoop=1;jettySize=auto;html=1;exitX=0.272;exitY=0.904;exitDx=0;exitDy=0;entryX=0.102;entryY=-0.06;entryDx=0;entryDy=0;entryPerimeter=0;exitPerimeter=0;" edge="1" parent="1" source="GevD9DxRQOt9VJw2yY9d-34" target="GevD9DxRQOt9VJw2yY9d-16">
          <mxGeometry relative="1" as="geometry">
            <mxPoint x="-542" y="1480" as="sourcePoint" />
          </mxGeometry>
        </mxCell>
        <mxCell id="GevD9DxRQOt9VJw2yY9d-18" style="edgeStyle=orthogonalEdgeStyle;rounded=0;orthogonalLoop=1;jettySize=auto;html=1;exitX=0.25;exitY=0;exitDx=0;exitDy=0;entryX=0.634;entryY=0.97;entryDx=0;entryDy=0;entryPerimeter=0;" edge="1" parent="1" source="GevD9DxRQOt9VJw2yY9d-16" target="GevD9DxRQOt9VJw2yY9d-34">
          <mxGeometry relative="1" as="geometry">
            <mxPoint x="-511.7600000000002" y="1479.28" as="targetPoint" />
          </mxGeometry>
        </mxCell>
        <mxCell id="GevD9DxRQOt9VJw2yY9d-19" value="&lt;font face=&quot;Avenir&quot;&gt;Contract&lt;/font&gt;" style="rounded=0;whiteSpace=wrap;html=1;fillColor=#C3ABD0;" vertex="1" parent="1">
          <mxGeometry x="-562" y="1600" width="80" height="40" as="geometry" />
        </mxCell>
        <mxCell id="GevD9DxRQOt9VJw2yY9d-20" style="edgeStyle=orthogonalEdgeStyle;rounded=0;orthogonalLoop=1;jettySize=auto;html=1;entryX=0.202;entryY=1.041;entryDx=0;entryDy=0;entryPerimeter=0;" edge="1" parent="1" source="GevD9DxRQOt9VJw2yY9d-19" target="GevD9DxRQOt9VJw2yY9d-16">
          <mxGeometry relative="1" as="geometry" />
        </mxCell>
        <mxCell id="GevD9DxRQOt9VJw2yY9d-21" style="edgeStyle=orthogonalEdgeStyle;rounded=0;orthogonalLoop=1;jettySize=auto;html=1;entryX=0.5;entryY=1;entryDx=0;entryDy=0;" edge="1" parent="1" source="GevD9DxRQOt9VJw2yY9d-22" target="GevD9DxRQOt9VJw2yY9d-19">
          <mxGeometry relative="1" as="geometry" />
        </mxCell>
        <mxCell id="GevD9DxRQOt9VJw2yY9d-22" value="&lt;font face=&quot;Avenir&quot;&gt;LAWYER&lt;/font&gt;" style="text;html=1;align=center;verticalAlign=middle;resizable=0;points=[];autosize=1;strokeColor=none;fillColor=none;" vertex="1" parent="1">
          <mxGeometry x="-557" y="1670" width="70" height="30" as="geometry" />
        </mxCell>
        <mxCell id="GevD9DxRQOt9VJw2yY9d-23" value="&lt;font face=&quot;Avenir&quot;&gt;Designer&amp;nbsp;&lt;/font&gt;&lt;div&gt;&lt;font face=&quot;Avenir&quot;&gt;Facing&lt;/font&gt;&lt;/div&gt;" style="text;html=1;align=center;verticalAlign=middle;resizable=0;points=[];autosize=1;strokeColor=none;fillColor=none;" vertex="1" parent="1">
          <mxGeometry x="-662" y="1310" width="80" height="40" as="geometry" />
        </mxCell>
        <mxCell id="GevD9DxRQOt9VJw2yY9d-24" value="&lt;font face=&quot;Avenir&quot;&gt;Lawyer Facing&lt;/font&gt;" style="text;html=1;align=center;verticalAlign=middle;resizable=0;points=[];autosize=1;strokeColor=none;fillColor=none;" vertex="1" parent="1">
          <mxGeometry x="-467" y="1610" width="100" height="30" as="geometry" />
        </mxCell>
        <mxCell id="GevD9DxRQOt9VJw2yY9d-25" value="&lt;font face=&quot;Avenir&quot;&gt;User/Dev Interactions&lt;/font&gt;" style="rounded=0;whiteSpace=wrap;html=1;fillColor=#C3ABD0;" vertex="1" parent="1">
          <mxGeometry x="-322" y="1200" width="80" height="40" as="geometry" />
        </mxCell>
        <mxCell id="GevD9DxRQOt9VJw2yY9d-26" value="&lt;font face=&quot;Avenir&quot;&gt;Tools&lt;/font&gt;" style="rounded=0;whiteSpace=wrap;html=1;fillColor=#A7D1A7;" vertex="1" parent="1">
          <mxGeometry x="-322" y="1240" width="80" height="40" as="geometry" />
        </mxCell>
        <mxCell id="GevD9DxRQOt9VJw2yY9d-27" value="&lt;font face=&quot;Avenir&quot;&gt;Parser Pipeline&amp;nbsp;&lt;/font&gt;&lt;div&gt;&lt;font face=&quot;Avenir&quot;&gt;(Data Objects)&lt;/font&gt;&lt;/div&gt;" style="rounded=0;whiteSpace=wrap;html=1;fillColor=#91A8C9;" vertex="1" parent="1">
          <mxGeometry x="-322" y="1280" width="80" height="60" as="geometry" />
        </mxCell>
        <mxCell id="GevD9DxRQOt9VJw2yY9d-29" value="" style="rounded=0;whiteSpace=wrap;html=1;fillColor=#91A8C9;" vertex="1" parent="1">
          <mxGeometry x="-90" y="1180" width="80" height="40" as="geometry" />
        </mxCell>
        <mxCell id="GevD9DxRQOt9VJw2yY9d-30" value="&lt;font face=&quot;Avenir&quot;&gt;Parser Pipeline&amp;nbsp;&lt;/font&gt;&lt;div&gt;&lt;font face=&quot;Avenir&quot;&gt;(Functions)&lt;/font&gt;&lt;/div&gt;" style="ellipse;whiteSpace=wrap;html=1;fillColor=#EA6B66;" vertex="1" parent="1">
          <mxGeometry x="-320" y="1350" width="80" height="80" as="geometry" />
        </mxCell>
        <mxCell id="GevD9DxRQOt9VJw2yY9d-31" value="&lt;span style=&quot;font-family: Avenir;&quot;&gt;BNF Parser&lt;/span&gt;" style="ellipse;whiteSpace=wrap;html=1;fillColor=#EA6B66;" vertex="1" parent="1">
          <mxGeometry x="-563" y="1270" width="82" height="60" as="geometry" />
        </mxCell>
        <mxCell id="GevD9DxRQOt9VJw2yY9d-34" value="&lt;span style=&quot;font-family: Avenir;&quot;&gt;Grammar Parser&lt;/span&gt;" style="ellipse;whiteSpace=wrap;html=1;fillColor=#EA6B66;" vertex="1" parent="1">
          <mxGeometry x="-564" y="1415" width="82" height="60" as="geometry" />
        </mxCell>
      </root>
    </mxGraphModel>
  </diagram>
</mxfile>
